<?xml version="1.0" standalone="no"?>
<!DOCTYPE svg PUBLIC "-//W3C//DTD SVG 20010904//EN"
 "http://www.w3.org/TR/2001/REC-SVG-20010904/DTD/svg10.dtd">
<svg version="1.0" xmlns="http://www.w3.org/2000/svg"
 width="480.000000pt" height="270.000000pt" viewBox="0 0 480.000000 270.000000"
 preserveAspectRatio="xMidYMid meet">

<g transform="translate(0.000000,270.000000) scale(0.100000,-0.100000)"
fill="#000000" stroke="none">
<path d="M0 2608 c0 -60 4 -88 13 -91 9 -4 9 -6 0 -6 -8 -1 -13 -16 -13 -40 0
-33 4 -40 23 -44 l22 -4 -22 -2 c-20 -1 -23 -7 -23 -40 0 -33 4 -40 23 -44
l22 -4 -22 -2 c-20 -1 -23 -7 -23 -41 l0 -40 243 -3 242 -2 -242 -3 c-208 -2
-243 -4 -243 -17 0 -8 9 -15 20 -15 11 0 20 -4 20 -9 0 -5 -8 -8 -17 -7 -10 0
-19 -7 -21 -16 -3 -16 15 -18 240 -21 l243 -2 -241 -3 -241 -2 -1 -40 -2 -39
68 -4 67 -3 -68 -2 c-48 -1 -67 -6 -65 -14 5 -14 52 -15 304 -5 139 6 173 4
177 -6 14 -36 -5 -38 -237 -36 -140 2 -226 6 -226 12 0 24 -13 -5 -16 -36 l-4
-34 62 3 c35 1 146 3 247 5 183 4 184 4 192 -19 l9 -23 -255 3 c-213 3 -255 1
-255 -11 0 -12 41 -13 254 -7 167 4 257 3 261 -4 4 -7 -82 -10 -254 -10 -212
0 -261 -3 -261 -13 0 -11 15 -13 63 -11 288 11 468 14 463 5 -4 -5 -2 -12 4
-16 33 -21 -11 -25 -260 -25 -187 0 -270 -3 -270 -11 0 -7 83 -9 285 -3 211 5
285 4 285 -5 0 -8 -78 -11 -286 -11 -224 0 -285 -3 -281 -12 2 -7 12 -12 23
-11 10 1 137 4 284 7 262 6 266 6 310 -16 l45 -23 -332 -3 c-183 -1 -333 -6
-333 -10 0 -8 694 -5 745 3 17 3 33 4 36 2 4 -1 15 5 25 15 41 36 96 49 197
47 55 -1 116 -6 136 -11 26 -7 57 -5 107 5 38 9 64 16 57 16 -8 1 -5 13 8 36
25 42 56 62 72 46 13 -13 84 -15 91 -2 3 5 61 10 129 10 112 2 125 0 141 -18
21 -24 60 -19 88 9 14 15 15 23 3 74 -7 31 -11 56 -9 56 3 0 -2 10 -10 22 -22
31 -20 36 17 41 l32 4 -37 1 c-20 1 -40 7 -43 12 -4 6 23 10 73 10 l79 0 -1
-32 c-1 -19 -7 -36 -16 -40 -12 -5 -12 -7 3 -7 30 -2 18 -20 -15 -24 l-33 -4
33 -1 c28 -2 32 -5 32 -30 0 -15 5 -33 12 -40 9 -9 3 -12 -28 -14 -39 -1 -39
-1 -5 -5 19 -3 40 -11 48 -19 18 -18 83 -15 90 3 4 11 48 13 204 13 110 -1
199 -5 199 -10 0 -5 12 -5 28 -1 15 4 39 7 55 6 15 -1 27 2 27 5 0 3 32 7 71
9 74 3 119 -14 119 -44 0 -13 76 -15 585 -15 383 0 585 -3 585 -10 0 -7 -220
-10 -637 -11 -351 -1 -802 -5 -1003 -8 -201 -4 90 -5 645 -2 904 4 1012 3
1026 -11 12 -12 20 -13 35 -5 10 6 58 12 106 15 69 3 88 1 88 -10 0 -10 3 -9
10 2 8 13 10 13 10 -1 0 -13 11 -15 58 -14 31 1 68 8 82 15 22 12 24 11 13 -2
-7 -8 -10 -18 -6 -21 3 -4 4 -7 2 -7 -2 0 -276 -3 -609 -7 -462 -5 -614 -3
-642 6 -47 16 -116 17 -131 2 -6 -6 -49 -12 -96 -13 -69 -1 -74 -3 -28 -5 77
-5 73 -23 -5 -25 l-63 -1 55 -7 c30 -4 47 -7 38 -8 -9 -1 -20 -11 -23 -22 -4
-14 -16 -20 -38 -21 -30 -2 -31 -2 -4 -6 46 -7 30 -23 -25 -25 l-53 -2 46 -3
c36 -3 48 -9 52 -23 2 -10 0 -23 -5 -28 -7 -7 -3 -14 10 -21 13 -7 19 -18 17
-31 -2 -11 0 -22 6 -25 13 -8 11 -55 -2 -55 -6 0 -3 -7 5 -16 19 -19 21 -44 4
-44 -7 0 -4 -6 7 -13 16 -10 -17 -13 -180 -17 l-200 -6 201 -2 202 -2 4 -25
c5 -24 3 -24 -66 -28 -56 -2 -49 -3 36 -5 59 -1 110 -6 113 -12 4 -6 -61 -11
-177 -13 l-183 -2 188 -3 c103 -1 187 -6 187 -10 0 -19 -37 -41 -75 -45 l-40
-4 38 -1 c56 -3 44 -22 -15 -24 l-53 -2 47 -3 47 -4 -11 -32 c-5 -18 -14 -41
-18 -52 -5 -11 -10 -29 -12 -40 -3 -17 -13 -21 -73 -26 l-70 -5 68 -2 c112 -3
77 -22 -45 -24 l-113 -2 107 -3 108 -4 -2 -39 -1 -39 -51 -4 -51 -3 53 -2 c48
-2 52 -4 52 -26 0 -14 -4 -27 -10 -31 -5 -3 -7 -12 -3 -20 3 -9 2 -35 -1 -59
-6 -35 -12 -46 -29 -49 -22 -4 -22 -4 1 -6 37 -2 26 -44 -13 -52 l-30 -7 29
-1 c28 -1 28 -2 22 -41 -6 -38 -35 -133 -71 -230 -9 -25 -34 -81 -56 -125 -42
-87 -47 -112 -24 -112 8 0 15 8 15 17 0 33 22 80 33 73 8 -4 7 -1 -1 9 -10 12
-9 18 3 28 8 7 15 17 15 22 0 6 15 42 34 82 43 90 76 187 76 222 0 14 13 56
30 93 16 37 32 86 36 110 4 23 10 44 15 47 9 5 75 -20 94 -36 9 -8 6 -22 -11
-58 -13 -26 -24 -54 -24 -63 0 -8 -12 -26 -26 -40 -15 -14 -23 -31 -20 -42 7
-29 -24 -102 -91 -217 -35 -58 -63 -116 -63 -130 0 -14 -12 -47 -26 -75 -17
-33 -23 -59 -20 -78 4 -19 1 -30 -8 -33 -19 -7 -56 13 -52 29 1 6 1 9 -1 5 -8
-14 -21 -9 -27 10 -2 9 -4 4 -2 -13 2 -41 15 -59 56 -84 34 -20 47 -21 327
-21 224 0 292 3 295 13 4 9 54 13 189 17 l184 6 -192 2 -192 2 1 34 c2 45 7
46 286 46 124 0 223 2 221 4 -5 6 -464 9 -494 4 -15 -2 -19 2 -17 17 2 11 5
21 6 23 2 1 49 3 105 3 56 0 99 4 96 8 -2 4 -53 7 -112 5 -85 -3 -101 -1 -78
7 37 13 582 28 1068 28 l367 1 0 40 0 40 -137 -1 c-225 -3 -545 -15 -458 -18
44 -2 87 -4 95 -5 8 -2 23 -3 33 -4 9 -1 17 -9 17 -18 0 -14 -3 -14 -15 -4 -8
7 -15 8 -15 3 0 -6 -38 -11 -87 -12 -49 -1 -110 -4 -138 -7 -27 -2 -197 -7
-377 -9 -320 -5 -328 -5 -328 14 0 15 8 21 38 24 l37 4 -37 1 c-54 3 -47 22 7
23 58 2 62 3 71 11 4 5 -21 8 -55 8 -54 0 -62 2 -59 18 2 12 14 17 40 18 20 1
85 4 145 7 59 4 264 10 455 13 290 6 350 5 365 -7 9 -8 14 -9 11 -4 -4 7 14
11 52 10 61 0 61 -14 0 -16 -27 0 -31 -2 -15 -8 12 -5 -2 -8 -40 -8 -33 -1
-141 -4 -240 -8 -99 -4 -286 -11 -415 -15 l-235 -8 304 4 c167 2 457 4 643 4
l338 0 0 41 0 42 -442 -8 c-243 -4 -454 -9 -468 -10 -20 -3 -455 -7 -495 -5
-5 0 -4 4 4 9 8 5 96 10 195 11 99 0 182 3 185 5 2 3 -39 5 -92 5 -53 0 -97 4
-97 8 0 12 -58 14 -65 2 -8 -12 -85 -13 -85 -1 0 10 -19 9 -35 -1 -6 -4 -12 3
-13 15 -1 21 2 22 96 20 54 -1 105 2 113 8 9 5 -26 9 -98 9 -69 0 -113 4 -113
10 0 6 69 10 188 10 103 0 182 4 175 8 -6 4 -42 6 -80 6 -37 -1 -74 3 -80 8
-7 6 -13 7 -13 3 0 -4 -7 -2 -15 5 -9 7 -15 8 -15 2 0 -6 -11 -9 -25 -8 -13 2
-22 -1 -19 -6 3 -5 -21 -8 -55 -7 -43 1 -62 6 -66 17 -3 8 -4 16 -2 18 1 2 50
6 107 9 58 4 107 9 109 11 2 2 -46 4 -107 4 -68 0 -112 4 -112 10 0 6 54 10
142 10 78 0 139 3 135 6 -3 4 -66 7 -139 8 -118 1 -133 3 -136 19 -4 18 -5 18
141 19 37 1 67 5 67 10 0 4 -47 8 -105 8 -63 0 -105 4 -105 10 0 6 42 10 106
10 58 0 103 4 100 8 -3 5 -50 7 -106 4 l-100 -4 0 26 c0 22 4 26 28 25 63 -4
185 1 179 7 -3 4 -51 6 -107 5 -55 -1 -100 2 -100 7 0 15 266 22 810 20 524
-2 524 -2 200 -9 -179 -3 -408 -7 -509 -8 -101 0 -182 -3 -180 -6 3 -2 162 -5
355 -6 192 0 340 -4 329 -9 -11 -4 -23 -6 -27 -3 -5 2 -8 0 -8 -6 0 -5 -8 -10
-17 -11 -10 0 -79 -4 -153 -9 -74 -5 -222 -10 -329 -10 -107 -1 -192 -3 -189
-6 3 -3 256 -5 563 -5 307 0 557 -2 554 -4 -2 -2 -233 -7 -514 -11 -280 -4
-512 -9 -514 -11 -2 -2 130 -4 295 -5 363 -1 338 0 342 -24 3 -17 1 -17 -7 -5
-8 10 -13 12 -18 4 -5 -6 -37 -12 -73 -13 -35 -1 -69 -5 -75 -9 -5 -3 -4 2 4
11 16 20 12 21 -26 6 -15 -6 -107 -14 -203 -18 -136 -6 -64 -8 318 -9 l492 -1
0 179 c0 162 -2 179 -17 183 -17 4 -17 5 0 6 13 1 17 10 17 41 l0 39 -67 4
-68 3 68 2 67 2 0 42 0 41 -262 -6 c-145 -4 -380 -7 -522 -7 -143 0 -257 -3
-254 -6 4 -3 162 -5 352 -5 326 1 346 0 346 -17 0 -15 -10 -18 -67 -20 -38 -1
-111 -5 -163 -7 -52 -3 -173 -5 -269 -5 -96 0 -172 -2 -169 -5 3 -3 187 -6
409 -7 252 0 372 -4 319 -8 -154 -14 -1163 -23 -1156 -11 5 7 69 11 188 11
100 0 179 2 177 5 -3 2 -78 5 -169 5 -90 1 -169 4 -177 7 -7 3 -13 13 -13 22
0 15 18 17 172 20 95 1 175 4 177 7 2 2 -77 4 -177 4 -115 0 -182 4 -182 10 0
6 42 10 107 10 58 0 104 2 101 5 -2 3 -51 6 -108 8 -87 4 -105 7 -117 23 -13
18 -10 19 74 25 l88 5 -92 2 c-54 1 -93 6 -93 12 0 6 23 10 50 10 29 0 50 5
50 11 0 7 -20 9 -55 7 -48 -4 -57 -1 -70 18 -14 21 -13 23 8 27 13 3 7 5 -15
6 -21 0 -38 5 -38 9 0 5 -17 27 -39 49 -39 42 -56 94 -37 113 14 14 1246 14
1246 -1 0 -6 -9 -8 -20 -4 -11 3 -20 2 -20 -3 0 -5 16 -9 35 -9 28 0 32 3 24
14 -9 10 -6 13 12 13 25 0 65 -20 41 -20 -7 0 -11 -4 -8 -9 8 -12 -192 -17
-733 -20 -234 -1 -427 -4 -430 -6 -2 -3 329 -5 737 -5 l742 0 0 40 0 40 -810
-7 c-583 -4 -810 -3 -810 5 0 6 8 13 18 15 16 4 16 5 0 6 -15 1 -16 5 -6 26
l11 25 609 0 c425 -1 608 -4 608 -12 0 -7 4 -7 13 -1 6 6 30 10 52 10 22 0 31
-2 20 -4 -11 -3 -25 -12 -31 -21 -10 -13 -88 -16 -630 -20 -340 -2 -621 -6
-623 -8 -2 -2 352 -4 787 -4 l792 0 0 40 0 41 -802 -7 c-608 -6 -799 -4 -794
4 5 9 208 12 802 12 l794 0 0 40 0 41 -800 -7 c-604 -5 -800 -4 -800 4 0 9
200 12 800 12 l800 0 0 41 0 40 -823 -7 c-620 -5 -826 -4 -831 4 -5 9 197 12
823 12 l831 0 0 40 0 40 -237 3 -238 2 238 3 237 2 0 39 c0 40 0 40 -42 44
l-43 4 43 1 42 2 0 40 0 39 -157 4 -158 3 158 2 157 2 0 40 0 39 -98 4 -97 3
98 2 97 2 0 40 0 39 -97 4 -98 3 98 2 97 2 0 40 0 39 -57 4 -58 3 58 2 57 2 0
40 0 39 -62 4 -63 3 63 2 62 2 0 39 c0 37 -2 40 -32 44 l-33 4 33 1 32 2 0 84
c0 58 -4 86 -12 89 -10 4 -10 6 0 6 6 1 12 10 12 21 0 20 -7 20 -652 20 -401
0 -647 -4 -638 -9 8 -6 18 -7 22 -5 4 3 8 0 8 -6 0 -8 -17 -10 -55 -6 -30 4
-55 2 -55 -2 0 -5 -129 -10 -287 -10 -159 -1 -490 -5 -738 -10 -422 -8 -384
-9 610 -12 l1060 -3 -1094 -9 c-602 -5 -1101 -12 -1109 -17 -8 -5 17 -6 57 -3
49 3 71 1 71 -7 0 -7 -26 -11 -75 -11 -45 0 -75 4 -75 10 0 7 -281 8 -887 4
-489 -4 -886 -4 -883 -1 3 3 251 9 550 13 300 3 689 10 865 14 205 5 40 6
-457 3 -655 -4 -778 -2 -778 9 0 11 25 13 125 12 69 -1 125 2 125 6 0 4 52 7
115 6 63 0 115 -4 115 -8 0 -3 8 -4 18 -2 17 3 144 10 407 20 77 3 307 9 510
13 272 5 99 7 -652 6 l-1023 0 0 -87z m190 32 c13 -8 13 -10 -2 -10 -9 0 -20
5 -23 10 -8 13 5 13 25 0z m3950 0 c-14 -4 -34 -8 -45 -8 -16 0 -15 2 5 8 14
4 34 8 45 8 16 0 15 -2 -5 -8z m57 4 c-3 -3 -12 -4 -19 -1 -8 3 -5 6 6 6 11 1
17 -2 13 -5z m56 -1 c-7 -2 -21 -2 -30 0 -10 3 -4 5 12 5 17 0 24 -2 18 -5z
m64 1 c-3 -3 -12 -4 -19 -1 -8 3 -5 6 6 6 11 1 17 -2 13 -5z m161 -1 c-26 -2
-71 -2 -100 0 -29 2 -8 3 47 3 55 0 79 -1 53 -3z m-2378 -43 c-33 -11 -90 -12
-90 -2 0 5 26 9 58 10 42 0 51 -1 32 -8z m150 1 c0 -17 -15 -19 -35 -5 -18 13
-18 14 8 14 15 0 27 -4 27 -9z m305 -17 c-14 -15 -22 -30 -19 -35 3 -5 -12
-10 -33 -10 -21 -1 -53 -2 -72 -3 -23 -1 -35 4 -37 14 -2 8 -5 25 -8 38 -5 22
-3 22 94 22 l99 0 -24 -26z m155 6 c-13 -24 -17 -24 -36 -6 -21 21 -18 26 16
26 28 0 30 -2 20 -20z m268 0 c-11 -17 -24 -20 -80 -20 -38 0 -68 2 -68 4 0 2
-3 11 -6 20 -5 14 6 16 80 16 84 0 86 -1 74 -20z m182 14 c0 -10 -33 -33 -47
-34 -7 0 -17 9 -23 20 -10 18 -8 20 30 20 22 0 40 -3 40 -6z m-1359 -15 c-40
-16 -52 -41 -42 -91 0 -4 11 -10 24 -14 l22 -8 -25 -7 c-21 -6 -18 -7 17 -8
23 -1 44 -5 48 -10 6 -10 -175 -20 -187 -11 -4 3 -10 20 -14 37 l-6 32 48 4
49 3 -52 2 c-51 2 -86 21 -41 23 19 1 17 3 -9 10 -18 5 -34 13 -38 18 -5 10
-43 3 -61 -10 -16 -13 -1344 -22 -1344 -9 0 5 19 10 43 11 90 1 252 7 257 9 3
2 86 4 185 6 317 5 729 15 750 17 11 2 106 4 210 5 134 1 183 -2 166 -9z
m1617 -14 c3 -3 -9 -5 -26 -5 -17 0 -33 4 -37 9 -5 10 53 6 63 -4z m-3238 -23
c0 -10 -67 -8 -77 2 -3 3 12 6 35 6 23 0 42 -4 42 -8z m2785 -2 c4 -6 -20 -10
-64 -10 -41 0 -71 4 -71 10 0 6 28 10 64 10 36 0 68 -4 71 -10z m605 0 c-20
-13 -170 -13 -170 0 0 6 37 10 93 10 63 0 87 -3 77 -10z m380 0 c0 -5 -9 -10
-20 -10 -11 0 -20 5 -20 10 0 6 9 10 20 10 11 0 20 -4 20 -10z m463 3 c-45 -2
-122 -2 -170 0 -48 1 -11 3 82 3 94 0 133 -2 88 -3z m-2893 -21 c0 -5 -156
-12 -347 -15 -373 -8 -1089 -9 -1082 -3 2 2 267 7 589 11 322 4 586 8 588 10
8 8 252 5 252 -3z m1413 -9 c26 -4 34 -9 25 -14 -10 -7 -9 -9 5 -9 10 0 15 -4
12 -10 -3 -5 -35 -10 -69 -10 -61 0 -63 1 -63 25 0 27 16 31 90 18z m-2856 -9
c-3 -3 -12 -4 -19 -1 -8 3 -5 6 6 6 11 1 17 -2 13 -5z m2466 -8 c9 -23 -2 -26
-85 -26 -76 0 -78 1 -66 20 11 17 24 20 79 20 48 0 68 -4 72 -14z m-1023 -21
l0 -25 -138 0 c-124 0 -139 2 -154 19 -16 19 -15 20 20 23 20 2 90 5 155 6
l117 2 0 -25z m1190 10 c0 -8 -7 -15 -15 -15 -13 0 -14 3 -3 15 16 18 18 18
18 0z m-1707 -9 c10 -25 -70 -39 -185 -31 -56 3 -123 6 -148 5 -25 0 -147 -2
-272 -5 -145 -3 -229 -1 -233 5 -3 6 3 10 15 10 12 0 18 5 15 10 -3 6 1 10 10
10 9 0 14 -4 11 -8 -3 -5 11 -8 29 -8 19 1 35 4 35 8 0 11 83 6 99 -6 11 -8
13 -8 7 2 -6 10 44 12 243 10 138 -1 253 1 257 5 14 13 112 8 117 -7z m1242
-26 c8 -13 -20 -24 -41 -16 -8 3 -12 10 -9 16 8 13 42 13 50 0z m310 0 c4 -6
-27 -10 -85 -10 -58 0 -89 4 -85 10 3 6 42 10 85 10 43 0 82 -4 85 -10z m160
0 c3 -5 -3 -10 -15 -10 -12 0 -18 5 -15 10 3 6 10 10 15 10 5 0 12 -4 15 -10z
m270 0 c4 -6 -20 -10 -64 -10 -41 0 -71 4 -71 10 0 6 28 10 64 10 36 0 68 -4
71 -10z m135 0 c0 -5 -7 -10 -15 -10 -8 0 -15 5 -15 10 0 6 7 10 15 10 8 0 15
-4 15 -10z m190 0 c11 -7 -2 -10 -42 -10 -32 0 -58 4 -58 10 0 13 80 13 100 0z
m235 0 c4 -6 -6 -10 -24 -10 -16 0 -33 5 -36 10 -4 6 6 10 24 10 16 0 33 -4
36 -10z m272 4 c-10 -10 -107 -12 -107 -3 0 5 26 9 57 9 31 0 53 -3 50 -6z
m71 -1 c-10 -2 -28 -2 -40 0 -13 2 -5 4 17 4 22 1 32 -1 23 -4z m525 0 c-35
-2 -91 -2 -125 0 -35 2 -7 3 62 3 69 0 97 -1 63 -3z m100 0 c-7 -2 -19 -2 -25
0 -7 3 -2 5 12 5 14 0 19 -2 13 -5z m-2623 -13 c0 -5 -5 -10 -11 -10 -5 0 -7
5 -4 10 3 6 8 10 11 10 2 0 4 -4 4 -10z m280 0 c0 -5 -24 -10 -52 -10 -38 0
-49 3 -38 10 20 13 90 13 90 0z m-650 -10 c0 -6 -50 -10 -131 -10 -84 0 -128
4 -124 10 4 6 58 10 131 10 76 0 124 -4 124 -10z m-960 -16 c0 -2 -111 -3
-247 -2 l-248 2 215 6 c202 5 280 3 280 -6z m400 6 c0 -6 -38 -10 -94 -10 -53
0 -98 4 -101 10 -4 6 30 10 94 10 61 0 101 -4 101 -10z m1586 -4 c30 -30 15
-36 -87 -36 -89 0 -100 2 -89 15 7 8 9 15 4 16 -5 0 0 4 11 9 34 15 145 12
161 -4z m432 -8 c-2 -17 -12 -25 -38 -29 l-35 -6 40 -2 c30 -1 36 -4 25 -11
-22 -15 -83 -13 -78 2 3 7 -1 19 -9 26 -29 29 -15 42 43 42 52 0 55 -1 52 -22z
m140 -1 c1 -15 -4 -24 -13 -24 -9 0 -14 9 -13 24 1 13 7 23 13 23 6 0 12 -10
13 -23z m165 10 c23 -3 37 -1 37 7 0 6 6 4 13 -5 7 -9 19 -18 27 -22 10 -4 8
-6 -7 -6 -36 -1 -27 -21 9 -21 59 0 22 -9 -57 -14 -44 -3 -87 -1 -95 4 -18 12
-9 14 63 11 30 -2 47 2 47 9 0 8 -19 11 -60 8 -37 -2 -60 1 -60 8 0 15 21 33
34 29 6 -2 28 -6 49 -8z m262 -7 c-3 -5 1 -11 7 -13 7 -3 4 -6 -7 -6 -14 -1
-21 5 -21 18 0 11 5 17 13 14 7 -3 11 -9 8 -13z m-1691 -2 c5 -10 7 -10 12 0
3 6 17 12 30 12 19 0 24 -5 24 -25 0 -17 -6 -25 -17 -26 -14 0 -13 -2 5 -9 12
-5 22 -12 22 -15 0 -3 -54 -5 -120 -5 -142 0 -164 18 -27 23 l92 3 -96 2 c-74
2 -100 6 -110 18 -10 13 -10 17 2 25 22 14 176 11 183 -3z m396 -8 c0 -13 -9
-20 -27 -23 -26 -4 -26 -4 5 -6 64 -2 30 -19 -50 -24 -131 -9 -127 -9 -123 21
2 15 4 29 5 32 2 3 2 8 2 11 -1 4 41 7 93 7 87 1 95 0 95 -18z m467 5 c8 -22
-6 -33 -17 -15 -13 20 -12 30 0 30 6 0 13 -7 17 -15z m-1207 -15 c0 -25 -23
-30 -125 -27 -75 2 -80 4 -83 25 -3 22 -2 22 102 22 99 0 106 -1 106 -20z
m2260 10 c0 -5 -7 -10 -16 -10 -8 0 -12 5 -9 10 3 6 10 10 16 10 5 0 9 -4 9
-10z m-2854 -17 c-2 -14 -14 -19 -49 -21 -56 -3 -72 15 -20 23 21 4 43 8 48
10 20 7 23 5 21 -12z m-377 -15 c-9 -17 -25 -18 -219 -18 -125 1 -210 5 -210
11 0 5 8 9 18 10 39 1 177 11 179 12 1 1 56 2 122 3 114 1 120 0 110 -18z
m176 3 c6 -11 -16 -18 -65 -20 -33 -2 -34 -1 -15 13 22 17 71 21 80 7z m3775
-1 c-8 -5 -67 -9 -130 -8 l-115 2 120 6 c66 3 125 7 130 8 6 1 3 -3 -5 -8z
m-1915 -10 c4 -6 -33 -10 -105 -10 -72 0 -109 4 -105 10 3 6 50 10 105 10 55
0 102 -4 105 -10z m155 0 c0 -5 -9 -10 -19 -10 -11 0 -23 5 -26 10 -4 6 5 10
19 10 14 0 26 -4 26 -10z m390 0 c0 -5 -6 -10 -14 -10 -8 0 -18 5 -21 10 -3 6
3 10 14 10 12 0 21 -4 21 -10z m437 4 c-3 -3 -12 -4 -19 -1 -8 3 -5 6 6 6 11
1 17 -2 13 -5z m346 -1 c-40 -2 -107 -2 -150 0 -43 1 -10 3 72 3 83 0 118 -2
78 -3z m215 0 c-10 -2 -26 -2 -35 0 -10 3 -2 5 17 5 19 0 27 -2 18 -5z m-2618
-23 c0 -6 -37 -10 -90 -10 -53 0 -90 4 -90 10 0 6 37 10 90 10 53 0 90 -4 90
-10z m-765 -10 c4 -6 -18 -10 -60 -10 -36 0 -64 3 -62 8 8 11 115 13 122 2z
m165 0 c0 -5 -13 -10 -30 -10 -16 0 -30 5 -30 10 0 6 14 10 30 10 17 0 30 -4
30 -10z m248 3 c-10 -2 -28 -2 -40 0 -13 2 -5 4 17 4 22 1 32 -1 23 -4z m1420
-26 c3 -15 -7 -17 -96 -17 -54 0 -101 3 -105 6 -17 17 9 31 61 33 31 1 58 3
59 5 2 2 20 0 40 -3 25 -4 39 -12 41 -24z m-2160 16 c-60 -2 -156 -2 -215 0
-60 1 -11 3 107 3 118 0 167 -2 108 -3z m1525 -13 c7 -29 -4 -31 -119 -28 -90
3 -99 5 -102 23 -3 19 4 20 106 23 104 2 110 1 115 -18z m317 1 c0 -17 -9 -20
-72 -23 -95 -4 -128 0 -128 17 0 17 25 22 123 24 70 1 77 -1 77 -18z m865 -1
c3 -6 -4 -10 -17 -10 -18 0 -20 2 -8 10 19 12 18 12 25 0z m-1912 -15 c38 -16
13 -25 -69 -25 -64 0 -85 3 -82 13 7 20 110 29 151 12z m287 0 c0 -9 -10 -15
-22 -16 -13 0 -44 -1 -70 -2 -29 -1 -50 3 -52 10 -7 19 3 22 75 22 54 0 69 -3
69 -14z m124 0 c4 -10 -1 -15 -16 -15 -17 0 -18 2 -8 15 7 8 14 15 15 15 2 0
5 -7 9 -15z m-1117 -20 c-6 -13 -30 -15 -167 -13 -88 1 -160 5 -160 9 0 12 31
19 47 11 8 -5 35 -5 58 -1 24 4 80 8 125 8 45 0 85 2 88 5 9 10 15 -2 9 -19z
m181 16 c24 -2 11 -16 -16 -18 -16 -1 -35 -3 -42 -5 -8 -2 -16 5 -18 14 -3 15
2 17 30 14 18 -3 39 -5 46 -5z m72 -14 c9 -3 5 -6 -11 -6 -16 -1 -26 4 -26 14
0 9 4 11 11 6 6 -4 18 -11 26 -14z m150 3 c0 -5 -14 -10 -31 -10 -17 0 -28 4
-24 10 3 6 17 10 31 10 13 0 24 -4 24 -10z m3773 3 c-7 -2 -19 -2 -25 0 -7 3
-2 5 12 5 14 0 19 -2 13 -5z m-2417 -15 c4 -5 -42 -7 -102 -7 -63 1 -94 4 -74
8 49 8 167 8 176 -1z m314 2 c0 -6 -42 -10 -105 -10 -63 0 -105 4 -105 10 0 6
42 10 105 10 63 0 105 -4 105 -10z m150 0 c0 -5 -6 -10 -14 -10 -8 0 -18 5
-21 10 -3 6 3 10 14 10 12 0 21 -4 21 -10z m243 3 c-7 -2 -19 -2 -25 0 -7 3
-2 5 12 5 14 0 19 -2 13 -5z m150 0 c-7 -2 -19 -2 -25 0 -7 3 -2 5 12 5 14 0
19 -2 13 -5z m250 0 c-29 -2 -78 -2 -110 0 -32 2 -8 3 52 3 61 0 87 -1 58 -3z
m210 0 c-7 -2 -19 -2 -25 0 -7 3 -2 5 12 5 14 0 19 -2 13 -5z m350 0 c-24 -2
-62 -2 -85 0 -24 2 -5 4 42 4 47 0 66 -2 43 -4z m170 0 c-7 -2 -19 -2 -25 0
-7 3 -2 5 12 5 14 0 19 -2 13 -5z m295 0 c-26 -2 -71 -2 -100 0 -29 2 -8 3 47
3 55 0 79 -1 53 -3z m-2448 -13 c0 -6 -43 -10 -110 -10 -67 0 -110 4 -110 10
0 6 43 10 110 10 67 0 110 -4 110 -10z m-460 -10 c0 -6 -27 -10 -60 -10 -33 0
-60 4 -60 10 0 6 27 10 60 10 33 0 60 -4 60 -10z m143 3 c-7 -2 -21 -2 -30 0
-10 3 -4 5 12 5 17 0 24 -2 18 -5z m1627 -3 c0 -5 -4 -10 -10 -10 -5 0 -10 5
-10 10 0 6 5 10 10 10 6 0 10 -4 10 -10z m-2360 -10 c0 -6 -56 -9 -152 -8
-140 2 -145 2 -63 8 153 11 215 11 215 0z m303 3 c-29 -2 -77 -2 -105 0 -29 2
-6 3 52 3 58 0 81 -1 53 -3z m1057 -18 c0 -25 0 -25 -100 -25 -55 0 -100 3
-100 8 1 22 22 31 84 34 37 2 79 4 92 5 20 2 24 -2 24 -22z m160 15 c0 -5 9
-10 21 -10 11 0 18 3 16 8 -3 4 23 8 56 9 63 1 85 -10 65 -34 -7 -9 -40 -13
-104 -13 -94 0 -94 0 -94 25 0 18 5 25 20 25 11 0 20 -4 20 -10z m313 4 c-7
-3 -9 -12 -6 -20 3 -8 -1 -14 -10 -14 -13 0 -15 13 -8 38 1 1 9 2 19 1 9 0 12
-3 5 -5z m484 -26 c-3 -7 -5 -2 -5 12 0 14 2 19 5 13 2 -7 2 -19 0 -25z m106
17 c8 -19 1 -22 -50 -24 -26 0 -43 4 -43 10 0 7 10 9 24 5 16 -4 26 -1 30 9 7
19 32 19 39 0z m-1688 -5 c-3 -5 -16 -10 -28 -10 -18 0 -19 2 -7 10 20 13 43
13 35 0z m318 -3 c10 -26 -8 -33 -100 -35 -92 -3 -116 5 -94 32 16 19 187 22
194 3z m1427 3 c0 -5 -5 -10 -11 -10 -5 0 -7 5 -4 10 3 6 8 10 11 10 2 0 4 -4
4 -10z m-2130 -14 c0 -2 3 -11 6 -20 5 -14 -8 -16 -105 -16 -92 0 -109 2 -105
15 6 13 32 17 162 23 23 1 42 0 42 -2z m220 -10 c0 -8 -14 -16 -32 -19 -40 -5
-58 0 -58 19 0 10 13 14 45 14 32 0 45 -4 45 -14z m-998 -10 c10 -5 16 -12 13
-16 -6 -10 -346 -9 -365 1 -18 10 -21 9 84 15 38 2 70 5 72 6 6 7 181 1 196
-6z m421 5 c5 -1 5 -6 1 -12 -5 -9 -40 -10 -121 -6 -63 4 -112 3 -109 -1 3 -5
-10 -7 -27 -7 -48 3 -50 4 -38 19 10 12 39 14 149 11 75 -2 141 -4 145 -4z
m1362 -21 c4 -6 -30 -10 -95 -10 -65 0 -99 4 -95 10 3 6 46 10 95 10 49 0 92
-4 95 -10z m320 0 c-3 -6 -49 -10 -101 -10 -61 0 -93 4 -89 10 3 6 49 10 101
10 61 0 93 -4 89 -10z m152 4 c-3 -3 -12 -4 -19 -1 -8 3 -5 6 6 6 11 1 17 -2
13 -5z m136 -1 c-7 -2 -19 -2 -25 0 -7 3 -2 5 12 5 14 0 19 -2 13 -5z m264 1
c-3 -3 -12 -4 -19 -1 -8 3 -5 6 6 6 11 1 17 -2 13 -5z m236 -1 c-29 -2 -77 -2
-105 0 -29 2 -6 3 52 3 58 0 81 -1 53 -3z m410 0 c-18 -2 -48 -2 -65 0 -18 2
-4 4 32 4 36 0 50 -2 33 -4z m155 0 c-21 -2 -57 -2 -80 0 -24 2 -7 4 37 4 44
0 63 -2 43 -4z m445 0 c-29 -2 -78 -2 -110 0 -32 2 -8 3 52 3 61 0 87 -1 58
-3z m-2424 -15 c-14 -15 -179 -12 -179 3 0 5 43 9 95 9 76 0 93 -3 84 -12z
m-684 -8 c4 -7 -33 -9 -112 -8 -103 1 -109 2 -48 7 137 11 153 12 160 1z m190
0 c-3 -5 -22 -10 -41 -10 -19 0 -34 5 -34 10 0 6 18 10 41 10 24 0 38 -4 34
-10z m-549 -9 c-5 -7 -61 -11 -162 -11 -85 0 -153 3 -150 8 2 4 75 9 161 10
111 3 155 1 151 -7z m1342 -18 c3 -22 1 -23 -86 -23 -88 0 -89 0 -89 24 0 24
1 24 86 23 81 -2 86 -3 89 -24z m322 7 c0 -18 -6 -20 -57 -20 -32 0 -69 -1
-82 -2 -16 -2 -26 3 -31 18 -8 21 -6 22 81 23 83 1 89 0 89 -19z m160 0 c0
-11 -7 -20 -15 -20 -13 0 -14 4 -5 20 6 11 13 20 15 20 3 0 5 -9 5 -20z m140
0 c10 -18 8 -20 -19 -20 -24 0 -28 3 -24 20 3 11 11 20 19 20 7 0 18 -9 24
-20z m-932 0 c6 0 12 -6 12 -14 0 -10 -21 -16 -75 -21 -82 -7 -95 -4 -95 27 0
20 4 20 73 15 39 -4 78 -7 85 -7z m1182 -6 c0 -8 -5 -12 -10 -9 -6 4 -8 11 -5
16 9 14 15 11 15 -7z m105 6 c3 -5 1 -10 -4 -10 -6 0 -11 5 -11 10 0 6 2 10 4
10 3 0 8 -4 11 -10z m85 5 c0 -2 -9 -9 -20 -15 -15 -8 -25 -8 -38 0 -15 10
-14 11 6 7 12 -3 22 -1 22 4 0 5 7 9 15 9 8 0 15 -2 15 -5z m75 -13 c-9 -10
-65 -10 -65 -1 0 8 50 17 63 11 5 -2 5 -7 2 -10z m422 12 c-3 -3 -12 -4 -19
-1 -8 3 -5 6 6 6 11 1 17 -2 13 -5z m-2539 -28 c3 -12 -5 -16 -30 -17 -194 -5
-204 -4 -190 18 8 13 65 19 157 17 46 -1 61 -5 63 -18z m174 2 c-7 -27 -62
-25 -62 2 0 16 6 19 34 18 27 -1 32 -5 28 -20z m-962 -18 c0 -19 -7 -20 -125
-20 -93 0 -125 3 -126 13 0 10 -2 10 -6 0 -6 -17 -20 -16 -26 1 -4 11 19 13
130 12 74 0 137 2 140 6 8 14 13 9 13 -12z m231 0 c-59 -20 -129 -17 -111 5 6
7 40 12 88 13 l77 1 -54 -19z m-636 0 c-3 -5 -12 -10 -18 -10 -7 0 -6 4 3 10
19 12 23 12 15 0z m100 0 c-3 -4 -2 -10 2 -13 5 -2 2 -2 -5 0 -8 1 -20 3 -28
3 -23 0 -9 15 15 17 12 1 19 -2 16 -7z m2724 -6 c2 -2 -16 -4 -40 -4 -30 0
-39 3 -30 9 13 9 60 5 70 -5z m221 6 c0 -5 -5 -10 -11 -10 -5 0 -7 5 -4 10 3
6 8 10 11 10 2 0 4 -4 4 -10z m245 0 c4 -6 -23 -10 -80 -10 -47 0 -84 3 -82 8
8 11 155 14 162 2z m1082 4 c-3 -3 -12 -4 -19 -1 -8 3 -5 6 6 6 11 1 17 -2 13
-5z m141 -1 c-15 -2 -42 -2 -60 0 -18 2 -6 4 27 4 33 0 48 -2 33 -4z m-2328
-12 c0 -7 -37 -11 -102 -11 -126 0 -114 17 13 19 57 1 89 -2 89 -8z m295 -1
c-28 -12 -127 -12 -145 0 -10 7 13 10 75 9 59 0 83 -3 70 -9z m168 3 c-7 -2
-19 -2 -25 0 -7 3 -2 5 12 5 14 0 19 -2 13 -5z m824 1 c-3 -3 -12 -4 -19 -1
-8 3 -5 6 6 6 11 1 17 -2 13 -5z m336 -1 c-40 -2 -106 -2 -145 0 -40 1 -8 3
72 3 80 0 112 -2 73 -3z m-2198 -13 c4 -6 -19 -10 -62 -10 -48 0 -63 3 -53 10
20 13 107 13 115 0z m-405 -10 c0 -6 -44 -10 -121 -10 -68 0 -118 4 -115 9 8
13 236 14 236 1z m141 -18 c-10 -32 -33 -72 -42 -72 -4 0 -4 15 -2 33 3 17 5
40 5 50 -1 11 7 17 23 17 21 0 23 -3 16 -28z m1309 3 c0 -15 -6 -25 -14 -25
-22 0 -30 19 -16 35 18 22 30 18 30 -10z m168 0 c11 -24 11 -25 -28 -25 -41 0
-52 14 -28 38 19 19 44 14 56 -13z m437 16 c-13 -12 -91 -22 -110 -15 -34 13
-11 24 52 24 40 0 63 -4 58 -9z m215 -14 c0 -17 -6 -23 -26 -25 -20 -1 -25 2
-20 14 3 9 6 19 6 23 0 4 9 7 20 8 14 1 20 -4 20 -20z m342 10 c6 -9 8 -9 8 1
0 6 4 12 8 12 4 0 8 -9 8 -20 0 -18 -7 -20 -61 -21 -33 0 -83 -2 -111 -4 -45
-2 -53 0 -62 19 -10 22 -9 22 96 24 73 0 109 -3 114 -11z m-3237 -7 c-3 -5
-18 -10 -33 -9 -24 0 -25 1 -7 9 28 12 47 12 40 0z m1608 -9 c3 -11 2 -22 -1
-25 -3 -3 -46 -6 -96 -6 -90 0 -91 0 -91 25 0 25 1 25 91 25 82 0 92 -2 97
-19z m267 9 c-8 -5 -26 -10 -40 -10 -14 0 -32 5 -40 10 -11 7 1 10 40 10 39 0
51 -3 40 -10z m587 -22 c-3 -7 -5 -2 -5 12 0 14 2 19 5 13 2 -7 2 -19 0 -25z
m-2710 15 c-48 -2 -126 -2 -175 0 -48 1 -8 3 88 3 96 0 136 -2 87 -3z m1300
-9 c10 -27 -12 -35 -89 -32 -73 3 -75 4 -67 26 8 20 15 22 79 22 55 0 72 -3
77 -16z m-437 -14 c0 -12 -7 -20 -17 -21 -154 -10 -191 -8 -196 11 -3 10 -2
21 1 24 3 3 52 6 109 6 96 0 103 -1 103 -20z m-622 -18 c3 -17 -2 -22 -17 -22
-16 0 -21 6 -21 26 0 33 33 30 38 -4z m2072 -2 c0 -5 -10 -10 -22 -10 -19 0
-20 2 -8 10 19 13 30 13 30 0z m200 0 c0 -5 -20 -10 -45 -10 -25 0 -45 5 -45
10 0 6 20 10 45 10 25 0 45 -4 45 -10z m625 0 c4 -6 -7 -10 -25 -10 -18 0 -29
4 -25 10 3 6 15 10 25 10 10 0 22 -4 25 -10z m385 0 c0 -13 -11 -13 -30 0 -12
8 -11 10 8 10 12 0 22 -4 22 -10z m-1650 -10 c0 -6 -42 -10 -106 -10 -67 0
-103 4 -99 10 3 6 50 10 106 10 59 0 99 -4 99 -10z m1843 3 c-7 -2 -21 -2 -30
0 -10 3 -4 5 12 5 17 0 24 -2 18 -5z m-2408 -13 c4 -6 -27 -10 -84 -10 -54 0
-91 4 -91 10 0 6 35 10 84 10 47 0 88 -4 91 -10z m-455 -10 c-20 -13 -190 -13
-190 0 0 6 41 10 103 10 69 0 97 -3 87 -10z m1453 3 c3 -5 1 -17 -3 -28 -5
-13 -2 -24 9 -32 13 -10 3 -12 -57 -13 -48 0 -71 4 -67 10 4 6 12 10 18 9 23
-3 52 3 40 8 -20 8 -15 21 15 37 31 17 39 19 45 9z m213 -19 c14 -20 12 -21
-39 -23 -49 -2 -53 0 -55 22 -1 22 2 24 39 23 30 -1 45 -7 55 -22z m620 4 c-2
-20 -10 -23 -50 -26 -37 -2 -46 0 -40 10 18 31 28 38 60 38 29 0 33 -3 30 -22z
m-3051 2 c4 -7 -70 -9 -217 -8 l-223 2 215 6 c118 3 216 7 217 8 1 1 5 -2 8
-8z m175 0 c11 -7 7 -10 -17 -10 -18 0 -33 5 -33 10 0 13 30 13 50 0z m1644
-11 c20 -12 36 -22 36 -24 0 -2 -61 -4 -135 -4 l-135 -2 2 26 c2 25 3 25 100
25 80 0 103 -4 132 -21z m-592 -14 l5 -25 -104 0 c-98 0 -103 1 -94 19 6 10 7
21 4 25 -3 3 37 6 89 6 94 0 96 0 100 -25z m-462 0 c0 -9 -10 -19 -22 -24 -33
-12 -121 -11 -135 1 -31 25 -7 34 100 37 45 1 57 -2 57 -14z m116 -22 c-11
-11 -19 6 -11 24 8 17 8 17 12 0 3 -10 2 -21 -1 -24z m-578 4 c3 -14 -5 -17
-45 -18 -26 -1 -61 -2 -77 -3 -21 -1 -31 5 -37 22 -8 22 -8 22 74 19 68 -2 82
-5 85 -20z m1588 -18 c3 -5 -66 -9 -157 -9 -194 0 -209 18 -19 22 134 3 167 1
176 -13z m569 11 c4 -6 -18 -10 -59 -10 -37 0 -66 4 -66 10 0 6 26 10 59 10
33 0 63 -4 66 -10z m600 0 c-3 -5 -35 -10 -71 -10 -41 0 -63 4 -59 10 3 6 35
10 71 10 41 0 63 -4 59 -10z m1063 3 c-42 -2 -114 -2 -160 0 -46 1 -11 3 77 3
88 0 125 -2 83 -3z m-3234 -22 c3 -5 -1 -12 -10 -15 -20 -8 -29 -1 -19 13 8
13 22 14 29 2z m351 -1 c4 -6 -35 -10 -110 -10 -75 0 -114 4 -110 10 3 6 52
10 110 10 58 0 107 -4 110 -10z m-745 -10 c0 -5 -6 -10 -14 -10 -8 0 -18 5
-21 10 -3 6 3 10 14 10 12 0 21 -4 21 -10z m210 0 c0 -13 -50 -13 -70 0 -11 7
-4 10 28 10 23 0 42 -4 42 -10z m1760 -3 c0 -6 3 -7 6 -4 4 3 15 2 26 -4 30
-16 66 -20 73 -9 4 6 11 8 16 5 5 -4 9 -1 9 5 0 6 5 8 10 5 6 -3 10 -1 10 5 0
7 7 7 23 -2 12 -7 38 -18 57 -24 29 -10 -4 -12 -182 -13 -195 -1 -218 1 -218
15 0 14 3 14 16 4 8 -8 14 -9 13 -4 -6 31 2 35 71 33 39 -1 70 -6 70 -12z
m608 -3 c12 -8 36 -16 53 -16 20 -1 26 -4 17 -9 -7 -5 -83 -9 -168 -8 -150 0
-154 1 -117 16 20 8 37 19 37 24 0 16 153 11 178 -7z m-2793 -4 c-3 -5 -28
-10 -56 -10 -27 0 -49 5 -49 10 0 6 25 10 56 10 34 0 53 -4 49 -10z m237 -27
c29 -26 21 -34 -27 -32 -25 2 -45 5 -45 8 0 12 15 28 30 34 22 8 22 8 42 -10z
m3136 10 c-10 -2 -28 -2 -40 0 -13 2 -5 4 17 4 22 1 32 -1 23 -4z m42 -33 c-8
-6 -43 -9 -78 -9 -84 2 -58 19 28 19 46 0 61 -3 50 -10z m-3120 -30 c17 -5 -6
-8 -67 -9 -56 -1 -93 3 -93 9 0 12 123 12 160 0z m3335 -20 c3 -5 -1 -10 -10
-10 -9 0 -13 5 -10 10 3 6 8 10 10 10 2 0 7 -4 10 -10z m-167 -83 c4 -18 3
-18 -25 0 -23 14 -26 15 -15 1 11 -13 9 -16 -15 -19 -16 -2 -239 -6 -497 -8
-388 -3 -470 -1 -477 10 -25 40 -30 40 508 37 493 -3 518 -4 521 -21z m78 10
c3 -8 11 -14 18 -14 8 0 12 6 9 14 -4 9 4 13 25 13 40 0 63 -10 55 -22 -4 -7
4 -9 21 -6 14 3 28 2 31 -2 2 -3 -47 -8 -110 -9 -98 -2 -115 0 -115 14 0 18
20 21 20 3 0 -7 5 -5 11 5 12 20 28 22 35 4z m204 -8 c0 -5 -7 -9 -15 -9 -15
0 -20 12 -9 23 8 8 24 -1 24 -14z m-50 -79 c-19 -4 -28 -8 -20 -9 12 -1 12 -4
-3 -12 -11 -6 -238 -12 -622 -16 l-605 -6 0 26 0 27 643 -1 c353 -1 626 -5
607 -9z m-1455 -36 c16 -14 40 -26 57 -26 16 -1 31 -4 33 -8 3 -4 15 -5 28 -3
30 6 41 -17 26 -55 -6 -15 -13 -45 -15 -66 -4 -48 -25 -94 -57 -124 -21 -20
-25 -21 -37 -7 -7 8 -18 15 -26 15 -22 0 -28 22 -8 33 10 6 20 9 20 6 2 -7 74
82 74 92 0 17 -18 9 -23 -11 -3 -11 -13 -23 -24 -27 -10 -3 -29 -14 -43 -22
-18 -12 -36 -15 -65 -10 -22 3 -32 7 -21 8 12 1 16 6 12 16 -3 10 1 15 12 16
14 0 14 2 -3 8 -11 5 -28 17 -37 28 -15 17 -16 24 -5 52 11 30 10 34 -11 52
-30 24 -19 43 23 36 36 -6 71 8 39 16 -17 4 -17 5 2 6 12 0 34 -11 49 -25z
m259 -466 c7 -5 4 -8 -6 -8 -10 0 -18 4 -18 9 0 5 -3 18 -6 28 -5 15 -3 15 7
-2 7 -11 17 -23 23 -27z m48 19 c-4 -14 -7 -16 -13 -5 -6 10 -9 8 -9 -7 0 -16
-2 -17 -10 -5 -10 17 2 37 23 37 9 0 12 -7 9 -20z m22 -12 c3 -8 1 -15 -4 -15
-6 0 -10 7 -10 15 0 8 2 15 4 15 2 0 6 -7 10 -15z m1156 -39 c0 -3 -4 -8 -10
-11 -5 -3 -10 -1 -10 4 0 6 5 11 10 11 6 0 10 -2 10 -4z m-1190 -43 c-1 -24
-3 -26 -13 -13 -20 25 -37 22 -37 -7 0 -31 -5 -28 -14 9 -5 22 -2 27 16 31 45
8 48 7 48 -20z m53 1 c3 -20 0 -24 -19 -24 -18 0 -24 6 -24 23 0 33 36 34 43
1z m-38 -54 c3 -5 -1 -10 -10 -10 -9 0 -13 5 -10 10 3 6 8 10 10 10 2 0 7 -4
10 -10z m1062 -7 c0 -7 -3 -11 -6 -11 -3 1 -17 -2 -31 -5 -38 -11 -171 -16
-587 -23 -379 -6 -383 -6 -383 14 0 11 6 22 13 25 6 2 106 5 222 6 115 1 211
4 212 5 2 2 128 2 281 2 209 -1 279 -4 279 -13z m63 9 c0 -4 -9 -13 -19 -19
-15 -10 -20 -9 -24 1 -3 8 -3 17 0 20 9 9 43 7 43 -2z m105 -63 c11 -4 -51 -8
-145 -8 -91 -1 -360 -4 -597 -8 -308 -4 -433 -3 -433 5 0 7 90 11 292 12 161
0 293 2 295 3 6 7 571 3 588 -4z m118 4 c-7 -2 -21 -2 -30 0 -10 3 -4 5 12 5
17 0 24 -2 18 -5z m94 1 c-3 -3 -12 -4 -19 -1 -8 3 -5 6 6 6 11 1 17 -2 13 -5z
m-315 -39 c5 -6 8 -5 8 3 0 14 26 16 35 2 4 -6 -1 -7 -11 -3 -12 4 -15 3 -10
-5 5 -8 -1 -13 -16 -14 -13 0 -34 -3 -48 -5 -56 -7 -161 -11 -500 -18 -195 -4
-357 -9 -359 -11 -2 -2 238 -4 534 -4 296 0 536 -2 534 -4 -2 -2 -274 -7 -604
-11 -330 -4 -603 -9 -607 -11 -4 -2 -9 0 -13 6 -4 6 11 11 37 11 77 3 97 5
104 12 4 4 -29 7 -74 7 -75 0 -82 2 -82 20 0 11 3 21 8 21 4 1 156 5 337 8
465 9 719 8 727 -4z m128 11 c0 -3 -4 -8 -10 -11 -5 -3 -10 -1 -10 4 0 6 5 11
10 11 6 0 10 -2 10 -4z m120 -10 c0 -3 -4 -8 -10 -11 -5 -3 -10 -1 -10 4 0 6
5 11 10 11 6 0 10 -2 10 -4z m-291 -88 c85 -2 106 -17 29 -20 -66 -1 -71 -2
-84 -10 -6 -4 -213 -10 -460 -13 -247 -3 -461 -8 -476 -10 -24 -4 -28 -1 -28
20 0 19 5 25 23 25 12 0 222 4 467 8 245 4 448 6 451 5 3 -1 38 -3 78 -5z m41
-182 c0 -3 -4 -8 -10 -11 -5 -3 -10 -1 -10 4 0 6 5 11 10 11 6 0 10 -2 10 -4z
m37 -2 c-3 -3 -12 -4 -19 -1 -8 3 -5 6 6 6 11 1 17 -2 13 -5z m40 0 c-3 -3
-12 -4 -19 -1 -8 3 -5 6 6 6 11 1 17 -2 13 -5z m-143 -380 c3 -8 2 -12 -4 -9
-6 3 -10 10 -10 16 0 14 7 11 14 -7z"/>
<path d="M2453 2553 c15 -2 37 -2 50 0 12 2 0 4 -28 4 -27 0 -38 -2 -22 -4z"/>
<path d="M2920 2499 c0 -5 5 -7 10 -4 6 3 10 8 10 11 0 2 -4 4 -10 4 -5 0 -10
-5 -10 -11z"/>
<path d="M3285 2240 c3 -5 8 -10 11 -10 2 0 4 5 4 10 0 6 -5 10 -11 10 -5 0
-7 -4 -4 -10z"/>
<path d="M2935 1570 c-3 -5 -1 -10 6 -10 7 0 9 -3 6 -6 -3 -4 -2 -15 4 -26 10
-18 11 -18 40 -1 l30 18 -28 13 c-21 10 -23 12 -5 8 12 -2 22 0 22 5 0 12 -67
11 -75 -1z"/>
<path d="M3070 1543 c0 -4 5 -15 10 -23 8 -13 10 -13 10 2 0 9 -4 20 -10 23
-5 3 -10 3 -10 -2z"/>
<path d="M3468 2693 c7 -3 16 -2 19 1 4 3 -2 6 -13 5 -11 0 -14 -3 -6 -6z"/>
<path d="M2718 1853 c6 -2 18 -2 25 0 6 3 1 5 -13 5 -14 0 -19 -2 -12 -5z"/>
<path d="M2023 1843 c32 -2 81 -2 110 0 29 2 3 3 -58 3 -60 0 -84 -1 -52 -3z"/>
<path d="M1493 1833 c15 -2 39 -2 55 0 15 2 2 4 -28 4 -30 0 -43 -2 -27 -4z"/>
<path d="M1618 1833 c7 -3 16 -2 19 1 4 3 -2 6 -13 5 -11 0 -14 -3 -6 -6z"/>
<path d="M1558 1803 c56 -2 148 -2 205 0 56 1 10 3 -103 3 -113 0 -159 -2
-102 -3z"/>
<path d="M1513 1743 c26 -2 67 -2 90 0 23 2 2 3 -48 3 -49 0 -68 -1 -42 -3z"/>
<path d="M942 1733 c37 -2 100 -2 140 0 40 1 10 3 -67 3 -77 0 -110 -1 -73 -3z"/>
<path d="M2088 1723 c45 -2 119 -2 165 0 45 1 8 3 -83 3 -91 0 -128 -2 -82 -3z"/>
<path d="M1512 1713 c59 -2 158 -2 220 0 62 1 14 3 -107 3 -121 0 -172 -2
-113 -3z"/>
<path d="M819 1705 c-3 -2 -189 -5 -413 -5 -286 -1 -406 -4 -404 -12 4 -10
135 -11 303 -3 33 1 283 6 555 10 272 4 497 9 499 11 2 2 -117 4 -266 4 -148
0 -272 -2 -274 -5z"/>
<path d="M2123 1663 c9 -2 23 -2 30 0 6 3 -1 5 -18 5 -16 0 -22 -2 -12 -5z"/>
<path d="M2223 1663 c9 -2 23 -2 30 0 6 3 -1 5 -18 5 -16 0 -22 -2 -12 -5z"/>
<path d="M1503 1653 c15 -2 39 -2 55 0 15 2 2 4 -28 4 -30 0 -43 -2 -27 -4z"/>
<path d="M1638 1653 c6 -2 18 -2 25 0 6 3 1 5 -13 5 -14 0 -19 -2 -12 -5z"/>
<path d="M338 1643 c-243 -2 -338 -6 -338 -15 0 -8 23 -9 78 -5 42 4 202 7
355 7 166 1 277 5 277 11 0 5 -8 8 -17 7 -10 -2 -170 -4 -355 -5z"/>
<path d="M848 1643 c6 -2 18 -2 25 0 6 3 1 5 -13 5 -14 0 -19 -2 -12 -5z"/>
<path d="M967 1643 c18 -2 50 -2 70 0 21 2 7 4 -32 4 -38 0 -55 -2 -38 -4z"/>
<path d="M2232 1633 c59 -2 158 -2 220 0 62 1 14 3 -107 3 -121 0 -172 -2
-113 -3z"/>
<path d="M2608 1633 c6 -2 18 -2 25 0 6 3 1 5 -13 5 -14 0 -19 -2 -12 -5z"/>
<path d="M1563 1623 l79 -4 -37 -24 c-20 -14 -41 -25 -48 -25 -8 0 -7 -4 3
-10 16 -10 11 -13 -35 -23 -17 -4 -17 -5 3 -6 19 -1 22 -5 16 -23 -4 -13 -9
-25 -13 -28 -8 -6 -12 -22 -25 -95 -13 -69 -20 -83 -50 -95 l-21 -9 23 0 c12
-1 22 -5 22 -11 0 -6 -64 -11 -157 -13 l-158 -3 158 -2 c132 -2 157 -4 157
-17 0 -8 0 -18 0 -22 1 -5 -16 -11 -37 -14 -34 -5 -31 -6 20 -8 36 0 57 3 57
10 0 7 12 9 34 5 57 -11 70 32 42 139 -19 74 -19 80 -3 67 18 -16 59 -12 46 4
-7 9 -5 14 8 16 15 4 13 7 -9 18 -35 17 -35 33 -2 59 34 27 50 26 79 -4 31
-31 31 -41 0 -49 -24 -6 -36 -36 -14 -36 5 0 8 -4 5 -8 -7 -12 36 -12 51 0 16
13 17 0 3 -38 -6 -15 -12 -40 -14 -56 -2 -16 -12 -38 -22 -50 -11 -12 -13 -18
-6 -14 8 5 12 1 12 -11 0 -11 6 -28 14 -38 11 -15 17 -17 27 -8 11 9 24 7 54
-7 l40 -19 3 44 c3 39 6 44 30 48 21 3 18 4 -11 6 -28 1 -36 4 -30 13 4 7 6
25 4 40 l-2 27 98 4 98 3 -102 2 c-61 1 -103 6 -103 12 0 6 10 10 23 11 21 1
21 1 -3 8 -34 9 -40 48 -8 54 17 3 15 5 -9 6 -37 1 -46 20 -10 22 21 1 21 1
-3 8 -15 4 -26 15 -28 29 -3 20 1 22 40 24 l43 1 -50 6 c-29 4 -49 11 -48 17
1 7 -18 22 -43 35 l-44 24 87 6 c55 3 13 5 -112 5 -110 0 -165 -2 -122 -3z
m187 -187 c0 -2 -7 -7 -16 -10 -8 -3 -12 -2 -9 4 6 10 25 14 25 6z"/>
<path d="M993 1613 c59 -2 155 -2 215 0 59 1 10 3 -108 3 -118 0 -167 -2 -107
-3z"/>
<path d="M0 1599 c0 -10 729 -2 739 8 3 2 -163 3 -367 3 -243 -1 -372 -4 -372
-11z"/>
<path d="M783 1603 c9 -2 25 -2 35 0 9 3 1 5 -18 5 -19 0 -27 -2 -17 -5z"/>
<path d="M1003 1553 c26 -2 68 -2 95 0 26 2 4 3 -48 3 -52 0 -74 -1 -47 -3z"/>
<path d="M0 1542 c0 -7 646 -5 680 2 8 2 -141 4 -332 5 -192 0 -348 -3 -348
-7z"/>
<path d="M2303 1543 c43 -2 110 -2 150 0 40 1 5 3 -78 3 -82 0 -115 -2 -72 -3z"/>
<path d="M2738 1543 c7 -3 16 -2 19 1 4 3 -2 6 -13 5 -11 0 -14 -3 -6 -6z"/>
<path d="M4440 1530 c0 -5 5 -10 10 -10 6 0 10 5 10 10 0 6 -4 10 -10 10 -5 0
-10 -4 -10 -10z"/>
<path d="M1043 1523 c54 -2 139 -2 190 0 51 1 7 3 -98 3 -104 0 -146 -2 -92
-3z"/>
<path d="M80 1510 c-47 -4 102 -4 330 -2 228 3 417 6 419 8 7 6 -658 1 -749
-6z"/>
<path d="M2463 1483 c9 -2 23 -2 30 0 6 3 -1 5 -18 5 -16 0 -22 -2 -12 -5z"/>
<path d="M2558 1483 c12 -2 30 -2 40 0 9 3 -1 5 -23 4 -22 0 -30 -2 -17 -4z"/>
<path d="M1113 1463 c20 -2 54 -2 75 0 20 2 3 4 -38 4 -41 0 -58 -2 -37 -4z"/>
<path d="M0 1452 c0 -8 635 -5 670 2 8 2 -139 4 -327 5 -189 0 -343 -3 -343
-7z"/>
<path d="M2493 1453 c64 -2 170 -2 235 0 64 1 11 3 -118 3 -129 0 -182 -2
-117 -3z"/>
<path d="M4460 1439 c0 -5 5 -7 10 -4 6 3 10 8 10 11 0 2 -4 4 -10 4 -5 0 -10
-5 -10 -11z"/>
<path d="M1113 1433 c42 -2 112 -2 155 0 42 1 7 3 -78 3 -85 0 -120 -2 -77 -3z"/>
<path d="M20 1419 c-14 -4 159 -5 385 -2 226 3 412 8 415 10 8 8 -773 0 -800
-8z"/>
<path d="M843 1423 c9 -2 25 -2 35 0 9 3 1 5 -18 5 -19 0 -27 -2 -17 -5z"/>
<path d="M2613 1393 c15 -2 37 -2 50 0 12 2 0 4 -28 4 -27 0 -38 -2 -22 -4z"/>
<path d="M2703 1393 c9 -2 23 -2 30 0 6 3 -1 5 -18 5 -16 0 -22 -2 -12 -5z"/>
<path d="M3810 1380 l-485 -5 576 -5 c317 -3 594 -2 615 2 22 3 42 2 47 -3 4
-5 4 -7 1 -4 -4 3 -14 -3 -23 -13 -18 -20 19 -18 -536 -28 -209 -4 -382 -8
-384 -10 -2 -2 262 -4 587 -4 l592 0 0 40 0 40 -252 -2 c-139 -2 -471 -5 -738
-8z m835 -10 c-3 -5 -18 -9 -33 -9 l-27 1 30 8 c17 4 31 8 33 9 2 0 0 -3 -3
-9z"/>
<path d="M1178 1373 c12 -2 32 -2 45 0 12 2 2 4 -23 4 -25 0 -35 -2 -22 -4z"/>
<path d="M1268 1373 c12 -2 32 -2 45 0 12 2 2 4 -23 4 -25 0 -35 -2 -22 -4z"/>
<path d="M3288 1373 c6 -2 18 -2 25 0 6 3 1 5 -13 5 -14 0 -19 -2 -12 -5z"/>
<path d="M0 1362 c0 -8 685 -5 720 2 8 2 -150 4 -352 5 -203 0 -368 -3 -368
-7z"/>
<path d="M1128 1343 c7 -3 16 -2 19 1 4 3 -2 6 -13 5 -11 0 -14 -3 -6 -6z"/>
<path d="M1223 1343 c37 -2 96 -2 130 0 34 2 4 3 -68 3 -71 0 -99 -1 -62 -3z"/>
<path d="M35 1329 c-22 -4 140 -5 360 -2 220 3 402 7 405 10 8 7 -721 -1 -765
-8z"/>
<path d="M3563 1313 c9 -2 25 -2 35 0 9 3 1 5 -18 5 -19 0 -27 -2 -17 -5z"/>
<path d="M1640 1301 c0 -6 5 -13 10 -16 6 -3 10 -1 10 6 0 9 4 9 15 -1 15 -12
35 -6 35 11 0 5 -16 9 -35 9 -19 0 -35 -4 -35 -9z"/>
<path d="M1998 1293 c7 -3 16 -2 19 1 4 3 -2 6 -13 5 -11 0 -14 -3 -6 -6z"/>
<path d="M3875 1290 l-430 -5 460 -4 c253 -3 500 -3 549 -2 60 2 86 0 82 -7
-4 -6 -16 -9 -27 -7 -25 5 -51 -4 -43 -16 3 -5 -55 -10 -133 -10 -76 -1 -253
-5 -393 -9 -215 -5 -167 -7 303 -8 l557 -2 0 40 0 41 -247 -3 c-137 -2 -441
-5 -678 -8z"/>
<path d="M1258 1283 c34 -2 88 -2 120 0 31 2 3 3 -63 3 -66 0 -92 -1 -57 -3z"/>
<path d="M5 1270 c-4 -7 17 -10 59 -9 36 1 66 5 66 10 0 13 -117 11 -125 -1z"/>
<path d="M183 1273 c9 -2 25 -2 35 0 9 3 1 5 -18 5 -19 0 -27 -2 -17 -5z"/>
<path d="M248 1273 c7 -3 16 -2 19 1 4 3 -2 6 -13 5 -11 0 -14 -3 -6 -6z"/>
<path d="M413 1273 c76 -2 198 -2 270 0 73 1 11 3 -138 3 -148 0 -208 -2 -132
-3z"/>
<path d="M2018 1263 c50 -2 134 -2 185 0 50 1 9 3 -93 3 -102 0 -143 -2 -92
-3z"/>
<path d="M130 1240 c-69 -4 93 -4 360 -2 267 3 487 6 489 8 7 6 -710 1 -849
-6z"/>
<path d="M3658 1223 c7 -3 16 -2 19 1 4 3 -2 6 -13 5 -11 0 -14 -3 -6 -6z"/>
<path d="M2123 1203 c15 -2 37 -2 50 0 12 2 0 4 -28 4 -27 0 -38 -2 -22 -4z"/>
<path d="M3975 1200 l-400 -5 395 -3 c217 -2 404 -7 415 -12 15 -6 7 -9 -31
-9 -28 -1 -54 -4 -58 -8 -8 -9 -56 -12 -331 -22 -191 -7 -151 -8 308 -9 l527
-2 0 40 0 40 -212 -2 c-117 -2 -393 -5 -613 -8z m495 -45 c0 -5 -5 -3 -10 5
-6 10 -10 11 -10 3 0 -7 -4 -13 -10 -13 -14 0 -12 28 3 33 12 4 27 -10 27 -28z"/>
<path d="M8 1178 c-7 -4 35 -8 94 -8 59 0 109 3 111 8 7 10 -189 11 -205 0z"/>
<path d="M288 1183 c6 -2 18 -2 25 0 6 3 1 5 -13 5 -14 0 -19 -2 -12 -5z"/>
<path d="M348 1183 c12 -2 32 -2 45 0 12 2 2 4 -23 4 -25 0 -35 -2 -22 -4z"/>
<path d="M473 1183 c9 -2 25 -2 35 0 9 3 1 5 -18 5 -19 0 -27 -2 -17 -5z"/>
<path d="M603 1183 c42 -2 112 -2 155 0 42 1 7 3 -78 3 -85 0 -120 -2 -77 -3z"/>
<path d="M2118 1173 c45 -2 119 -2 165 0 45 1 8 3 -83 3 -91 0 -128 -2 -82 -3z"/>
<path d="M4250 1176 c0 -2 9 -6 20 -9 11 -3 18 -1 14 4 -5 9 -34 13 -34 5z"/>
<path d="M170 1150 c-91 -4 51 -4 315 -2 264 3 482 6 484 8 6 6 -608 1 -799
-6z"/>
<path d="M3658 1133 c7 -3 16 -2 19 1 4 3 -2 6 -13 5 -11 0 -14 -3 -6 -6z"/>
<path d="M3698 1133 c6 -2 18 -2 25 0 6 3 1 5 -13 5 -14 0 -19 -2 -12 -5z"/>
<path d="M2403 1113 c9 -2 23 -2 30 0 6 3 -1 5 -18 5 -16 0 -22 -2 -12 -5z"/>
<path d="M418 1093 c7 -3 16 -2 19 1 4 3 -2 6 -13 5 -11 0 -14 -3 -6 -6z"/>
<path d="M563 1093 c9 -2 25 -2 35 0 9 3 1 5 -18 5 -19 0 -27 -2 -17 -5z"/>
<path d="M702 1093 c37 -2 100 -2 140 0 40 1 10 3 -67 3 -77 0 -110 -1 -73 -3z"/>
<path d="M58 1083 c34 -2 90 -2 125 0 34 2 6 3 -63 3 -69 0 -97 -1 -62 -3z"/>
<path d="M2498 1083 c23 -2 59 -2 80 0 20 2 1 4 -43 4 -44 0 -61 -2 -37 -4z"/>
<path d="M2018 1073 c17 -2 47 -2 65 0 17 2 3 4 -33 4 -36 0 -50 -2 -32 -4z"/>
<path d="M450 1062 c0 -7 515 -5 625 1 28 2 -102 4 -287 5 -186 0 -338 -2
-338 -6z"/>
<path d="M0 1053 c0 -5 66 -7 147 -5 273 4 299 8 76 10 -123 1 -223 -1 -223
-5z"/>
<path d="M2608 1023 c29 -2 74 -2 100 0 26 2 2 3 -53 3 -55 0 -76 -1 -47 -3z"/>
<path d="M683 1003 c9 -2 23 -2 30 0 6 3 -1 5 -18 5 -16 0 -22 -2 -12 -5z"/>
<path d="M813 1003 c9 -2 23 -2 30 0 6 3 -1 5 -18 5 -16 0 -22 -2 -12 -5z"/>
<path d="M933 1003 c26 -2 68 -2 95 0 26 2 4 3 -48 3 -52 0 -74 -1 -47 -3z"/>
<path d="M93 993 c54 -2 139 -2 190 0 51 1 7 3 -98 3 -104 0 -146 -2 -92 -3z"/>
<path d="M2093 983 c31 -2 83 -2 115 0 31 2 5 3 -58 3 -63 0 -89 -1 -57 -3z"/>
<path d="M868 973 c56 -2 148 -2 205 0 56 1 10 3 -103 3 -113 0 -159 -2 -102
-3z"/>
<path d="M102 963 c59 -2 158 -2 220 0 62 1 14 3 -107 3 -121 0 -172 -2 -113
-3z"/>
<path d="M2093 923 c32 -2 81 -2 110 0 29 2 3 3 -58 3 -60 0 -84 -1 -52 -3z"/>
<path d="M0 908 c0 -5 107 -7 238 -6 253 2 229 6 -61 10 -97 2 -177 0 -177 -4z"/>
<path d="M1123 913 c15 -2 39 -2 55 0 15 2 2 4 -28 4 -30 0 -43 -2 -27 -4z"/>
<path d="M2108 893 c34 -2 90 -2 125 0 34 2 6 3 -63 3 -69 0 -97 -1 -62 -3z"/>
<path d="M2328 893 c6 -2 18 -2 25 0 6 3 1 5 -13 5 -14 0 -19 -2 -12 -5z"/>
<path d="M868 883 c7 -3 16 -2 19 1 4 3 -2 6 -13 5 -11 0 -14 -3 -6 -6z"/>
<path d="M933 883 c9 -2 25 -2 35 0 9 3 1 5 -18 5 -19 0 -27 -2 -17 -5z"/>
<path d="M1078 883 c34 -2 90 -2 125 0 34 2 6 3 -63 3 -69 0 -97 -1 -62 -3z"/>
<path d="M0 873 c0 -5 78 -7 172 -5 323 4 354 8 91 10 -145 1 -263 -1 -263 -5z"/>
<path d="M538 873 c7 -3 16 -2 19 1 4 3 -2 6 -13 5 -11 0 -14 -3 -6 -6z"/>
<path d="M2378 833 c6 -2 18 -2 25 0 6 3 1 5 -13 5 -14 0 -19 -2 -12 -5z"/>
<path d="M838 823 c6 -2 18 -2 25 0 6 3 1 5 -13 5 -14 0 -19 -2 -12 -5z"/>
<path d="M127 813 c73 -2 193 -2 265 0 73 1 14 3 -132 3 -146 0 -205 -2 -133
-3z"/>
<path d="M1256 802 c-3 -5 10 -16 28 -24 l33 -16 0 -99 c1 -58 8 -121 17 -152
8 -28 16 -55 17 -59 1 -4 5 -17 10 -30 5 -13 12 -34 15 -47 3 -14 11 -25 16
-25 12 0 8 18 -22 130 -13 45 -24 122 -27 193 -4 82 -9 117 -17 114 -7 -3 -20
1 -31 9 -22 16 -32 17 -39 6z"/>
<path d="M0 783 c0 -5 82 -7 182 -5 342 4 374 8 96 10 -153 1 -278 -1 -278 -5z"/>
<path d="M1993 775 c-6 -11 -14 -81 -18 -155 -4 -74 -9 -144 -11 -155 -2 -11
-15 -72 -28 -135 -14 -63 -31 -143 -37 -178 -11 -60 -29 -93 -29 -55 -1 13 -5
9 -17 -12 -15 -27 -17 -28 -24 -10 -6 17 -8 17 -8 3 -1 -10 -8 -18 -16 -18
-11 0 -12 5 -5 26 16 41 11 42 -11 2 -20 -38 -37 -52 -25 -21 4 9 3 19 -2 22
-16 10 16 95 48 131 17 19 33 46 36 60 4 14 12 47 20 74 8 27 14 61 14 75 0
23 -4 20 -27 -21 -34 -61 -71 -79 -148 -73 -32 3 -75 10 -97 17 -48 14 -130
86 -148 128 -23 57 -23 33 4 -95 1 -5 5 -16 10 -24 6 -9 0 -20 -20 -36 -30
-24 -44 -24 -44 1 0 8 -6 14 -14 14 -21 0 -33 -84 -33 -222 l0 -118 319 0 318
0 0 44 c0 41 2 45 28 49 l27 4 -27 2 c-26 1 -28 4 -28 41 l0 40 73 2 72 2 -70
3 c-39 2 -73 9 -77 16 -12 19 -9 67 5 67 6 0 4 5 -5 11 -10 5 -18 18 -18 29 0
10 8 21 18 23 13 4 11 5 -5 6 -24 1 -33 21 -10 21 9 0 9 2 0 8 -8 5 -8 21 3
61 8 30 17 90 20 133 l7 77 141 4 141 3 -143 2 c-142 2 -143 2 -140 25 3 21 8
22 113 27 l110 4 -115 6 c-122 5 -120 3 -60 49 33 25 20 37 -18 17 -28 -15
-31 -14 -34 2 -4 15 -5 15 -15 -3z m-493 -479 c6 -19 17 -40 25 -46 7 -6 17
-26 21 -43 4 -18 9 -26 11 -19 10 27 23 -2 23 -49 0 -46 -12 -65 -23 -36 -3 6
-6 2 -6 -10 -1 -27 -2 -27 -45 -9 -34 14 -34 14 -66 144 -6 23 -15 42 -21 42
-10 0 52 59 63 60 3 0 12 -15 18 -34z"/>
<path d="M1885 747 c-4 -10 -5 -21 -1 -24 10 -10 18 4 13 24 -4 17 -4 17 -12
0z"/>
<path d="M2658 743 c17 -2 47 -2 65 0 17 2 3 4 -33 4 -36 0 -50 -2 -32 -4z"/>
<path d="M157 723 c90 -2 236 -2 325 0 90 1 17 3 -162 3 -179 0 -252 -2 -163
-3z"/>
<path d="M0 692 c0 -6 766 -5 835 2 17 1 -165 4 -402 4 -238 1 -433 -1 -433
-6z"/>
<path d="M2965 680 c-3 -5 1 -10 9 -10 9 0 16 5 16 10 0 6 -4 10 -9 10 -6 0
-13 -4 -16 -10z"/>
<path d="M1920 658 c0 -3 -7 -22 -15 -41 -9 -21 -11 -38 -5 -42 10 -6 35 73
26 83 -3 3 -6 3 -6 0z"/>
<path d="M63 633 c37 -2 96 -2 130 0 34 2 4 3 -68 3 -72 0 -99 -1 -62 -3z"/>
<path d="M318 633 c6 -2 18 -2 25 0 6 3 1 5 -13 5 -14 0 -19 -2 -12 -5z"/>
<path d="M483 633 c71 -2 183 -2 250 0 67 1 10 3 -128 3 -137 0 -192 -2 -122
-3z"/>
<path d="M2058 613 c7 -3 16 -2 19 1 4 3 -2 6 -13 5 -11 0 -14 -3 -6 -6z"/>
<path d="M2173 613 c9 -2 25 -2 35 0 9 3 1 5 -18 5 -19 0 -27 -2 -17 -5z"/>
<path d="M2263 613 c9 -2 23 -2 30 0 6 3 -1 5 -18 5 -16 0 -22 -2 -12 -5z"/>
<path d="M203 603 c9 -2 23 -2 30 0 6 3 -1 5 -18 5 -16 0 -22 -2 -12 -5z"/>
<path d="M383 603 c9 -2 25 -2 35 0 9 3 1 5 -18 5 -19 0 -27 -2 -17 -5z"/>
<path d="M608 603 c6 -2 18 -2 25 0 6 3 1 5 -13 5 -14 0 -19 -2 -12 -5z"/>
<path d="M658 603 c6 -2 18 -2 25 0 6 3 1 5 -13 5 -14 0 -19 -2 -12 -5z"/>
<path d="M748 603 c6 -2 18 -2 25 0 6 3 1 5 -13 5 -14 0 -19 -2 -12 -5z"/>
<path d="M3758 583 c12 -2 30 -2 40 0 9 3 -1 5 -23 4 -22 0 -30 -2 -17 -4z"/>
<path d="M4085 560 l-200 -6 268 -2 c246 -2 303 -8 245 -27 -35 -11 -84 -14
-328 -21 -124 -3 -227 -8 -229 -10 -2 -2 212 -4 477 -4 l482 0 0 40 0 40 -257
-2 c-142 -1 -348 -5 -458 -8z m479 -11 c3 -3 -11 -7 -31 -8 -21 -1 -53 -3 -71
-4 -17 -2 -29 0 -25 4 14 13 116 19 127 8z"/>
<path d="M2268 553 c23 -2 59 -2 80 0 20 2 1 4 -43 4 -44 0 -61 -2 -37 -4z"/>
<path d="M2398 553 c6 -2 18 -2 25 0 6 3 1 5 -13 5 -14 0 -19 -2 -12 -5z"/>
<path d="M35 540 l-40 -7 35 -1 c19 -1 42 3 50 8 16 11 14 11 -45 0z"/>
<path d="M393 543 c126 -2 328 -2 450 0 122 1 20 2 -228 2 -247 0 -347 -1
-222 -2z"/>
<path d="M278 513 c7 -3 16 -2 19 1 4 3 -2 6 -13 5 -11 0 -14 -3 -6 -6z"/>
<path d="M418 513 c7 -3 16 -2 19 1 4 3 -2 6 -13 5 -11 0 -14 -3 -6 -6z"/>
<path d="M27 503 c18 -2 48 -2 66 0 17 2 3 4 -33 4 -36 0 -50 -2 -33 -4z"/>
<path d="M4120 470 c-214 -5 -218 -6 -75 -8 83 -2 205 -3 273 -2 67 1 122 -1
122 -4 0 -3 -10 -10 -21 -17 -15 -8 -19 -8 -15 0 4 6 3 11 -3 11 -5 0 -15 -8
-20 -17 -10 -17 -10 -17 -11 0 0 11 -4 15 -12 11 -19 -12 -121 -20 -378 -31
-74 -2 -137 -7 -139 -9 -2 -2 212 -4 477 -4 l482 0 0 40 0 40 -227 -2 c-126
-1 -329 -5 -453 -8z m350 -20 c0 -5 -4 -10 -10 -10 -5 0 -10 5 -10 10 0 6 5
10 10 10 6 0 10 -4 10 -10z"/>
<path d="M0 452 c0 -7 888 -5 935 2 11 2 -195 4 -457 5 -263 0 -478 -3 -478
-7z"/>
<path d="M3653 453 c20 -2 54 -2 75 0 20 2 3 4 -38 4 -41 0 -58 -2 -37 -4z"/>
<path d="M43 413 c26 -2 67 -2 90 0 23 2 2 3 -48 3 -50 0 -68 -1 -42 -3z"/>
<path d="M0 359 c0 -11 237 -12 243 -1 3 4 -51 8 -119 9 -69 0 -124 -3 -124
-8z"/>
<path d="M303 363 c26 -2 68 -2 95 0 26 2 4 3 -48 3 -52 0 -74 -1 -47 -3z"/>
<path d="M638 363 c46 -2 118 -2 160 0 42 1 5 3 -83 3 -88 0 -123 -2 -77 -3z"/>
<path d="M888 363 c7 -3 16 -2 19 1 4 3 -2 6 -13 5 -11 0 -14 -3 -6 -6z"/>
<path d="M58 323 c34 -2 90 -2 125 0 34 2 6 3 -63 3 -69 0 -97 -1 -62 -3z"/>
<path d="M40 269 c-25 -3 16 -6 90 -6 131 0 137 4 15 9 -33 2 -80 0 -105 -3z"/>
<path d="M653 273 c9 -2 23 -2 30 0 6 3 -1 5 -18 5 -16 0 -22 -2 -12 -5z"/>
<path d="M708 273 c6 -2 18 -2 25 0 6 3 1 5 -13 5 -14 0 -19 -2 -12 -5z"/>
<path d="M778 273 c18 -2 45 -2 60 0 15 2 0 4 -33 4 -33 0 -45 -2 -27 -4z"/>
<path d="M883 273 c9 -2 23 -2 30 0 6 3 -1 5 -18 5 -16 0 -22 -2 -12 -5z"/>
<path d="M2028 273 c6 -2 18 -2 25 0 6 3 1 5 -13 5 -14 0 -19 -2 -12 -5z"/>
<path d="M3560 270 c0 -5 5 -10 10 -10 6 0 10 5 10 10 0 6 -4 10 -10 10 -5 0
-10 -4 -10 -10z"/>
<path d="M3590 270 c0 -5 5 -10 11 -10 5 0 7 5 4 10 -3 6 -8 10 -11 10 -2 0
-4 -4 -4 -10z"/>
<path d="M3478 263 c7 -3 16 -2 19 1 4 3 -2 6 -13 5 -11 0 -14 -3 -6 -6z"/>
<path d="M3528 263 c7 -3 16 -2 19 1 4 3 -2 6 -13 5 -11 0 -14 -3 -6 -6z"/>
<path d="M58 233 c34 -2 88 -2 120 0 31 2 3 3 -63 3 -66 0 -92 -1 -57 -3z"/>
<path d="M4290 200 c-138 -3 -188 -7 -130 -9 52 -2 103 -3 112 -2 11 2 16 -5
15 -19 -1 -19 -6 -21 -49 -18 -26 2 -50 -1 -53 -7 -3 -6 -7 -5 -11 3 -3 6 -11
9 -17 5 -7 -4 -50 -10 -97 -14 -47 -3 101 -7 328 -7 l412 -2 0 40 0 40 -142
-2 c-79 -1 -244 -5 -368 -8z m210 -20 c0 -12 -28 -18 -65 -15 -16 1 -39 -1
-50 -5 -12 -4 -34 1 -54 10 l-33 17 101 1 c55 0 101 -3 101 -8z"/>
<path d="M7 193 c-19 -19 5 -23 133 -23 77 0 140 4 140 8 0 4 -47 7 -105 7
-58 -1 -105 2 -105 7 0 4 -9 8 -20 8 -11 0 -20 -6 -20 -12 0 -10 -2 -10 -8 0
-5 7 -11 9 -15 5z"/>
<path d="M645 189 c-61 -5 -54 -6 49 -7 66 -1 116 1 113 4 -9 9 -78 10 -162 3z"/>
<path d="M3820 190 l-105 -6 123 -2 c76 -1 122 2 122 8 0 6 -8 9 -17 8 -10 -1
-65 -5 -123 -8z"/>
<path d="M328 183 c7 -3 16 -2 19 1 4 3 -2 6 -13 5 -11 0 -14 -3 -6 -6z"/>
<path d="M423 183 c20 -2 54 -2 75 0 20 2 3 4 -38 4 -41 0 -58 -2 -37 -4z"/>
<path d="M868 183 c6 -2 18 -2 25 0 6 3 1 5 -13 5 -14 0 -19 -2 -12 -5z"/>
<path d="M3588 183 c6 -2 18 -2 25 0 6 3 1 5 -13 5 -14 0 -19 -2 -12 -5z"/>
<path d="M48 143 c28 -2 76 -2 105 0 28 2 5 3 -53 3 -58 0 -81 -1 -52 -3z"/>
<path d="M3915 130 c4 -6 11 -8 16 -5 14 9 11 15 -7 15 -8 0 -12 -5 -9 -10z"/>
<path d="M4305 110 c-180 -4 -222 -7 -150 -10 79 -4 100 -8 103 -20 2 -12 -7
-16 -35 -17 -364 -15 -336 -20 110 -21 l467 -2 0 40 0 41 -122 -3 c-68 -2
-235 -5 -373 -8z m58 -26 c-3 -8 -15 -9 -46 -2 -58 13 -57 17 1 15 34 0 48 -5
45 -13z m72 6 c4 -6 -5 -10 -19 -10 -14 0 -26 5 -26 10 0 6 9 10 19 10 11 0
23 -4 26 -10z m35 0 c0 -5 -4 -10 -10 -10 -5 0 -10 5 -10 10 0 6 5 10 10 10 6
0 10 -4 10 -10z"/>
<path d="M0 90 c0 -6 41 -10 103 -10 60 0 96 4 89 9 -20 12 -192 13 -192 1z"/>
<path d="M463 93 c70 -2 184 -2 255 0 70 1 12 3 -128 3 -140 0 -198 -2 -127
-3z"/>
<path d="M2747 89 c7 -7 15 -10 18 -7 3 3 -2 9 -12 12 -14 6 -15 5 -6 -5z"/>
<path d="M3583 93 c9 -2 23 -2 30 0 6 3 -1 5 -18 5 -16 0 -22 -2 -12 -5z"/>
<path d="M3383 83 c9 -2 23 -2 30 0 6 3 -1 5 -18 5 -16 0 -22 -2 -12 -5z"/>
<path d="M0 21 l0 -21 473 2 472 3 -398 2 c-219 2 -396 7 -393 11 2 4 -3 8
-12 8 -9 1 -45 4 -79 8 -60 7 -63 6 -63 -13z"/>
<path d="M4385 20 c-71 -3 -125 -8 -120 -11 6 -3 128 -6 273 -8 234 -3 262 -1
262 13 0 14 -18 16 -142 14 -79 -1 -201 -5 -273 -8z"/>
<path d="M4078 13 c7 -3 16 -2 19 1 4 3 -2 6 -13 5 -11 0 -14 -3 -6 -6z"/>
<path d="M4130 16 c0 -8 71 -12 76 -4 3 4 -13 8 -35 8 -23 0 -41 -2 -41 -4z"/>
<path d="M968 3 c6 -2 18 -2 25 0 6 3 1 5 -13 5 -14 0 -19 -2 -12 -5z"/>
<path d="M1288 3 c6 -2 18 -2 25 0 6 3 1 5 -13 5 -14 0 -19 -2 -12 -5z"/>
<path d="M3537 3 c18 -2 50 -2 70 0 21 2 7 4 -32 4 -38 0 -55 -2 -38 -4z"/>
</g>
</svg>
