<?xml version="1.0" standalone="no"?>
<!DOCTYPE svg PUBLIC "-//W3C//DTD SVG 20010904//EN"
 "http://www.w3.org/TR/2001/REC-SVG-20010904/DTD/svg10.dtd">
<svg version="1.0" xmlns="http://www.w3.org/2000/svg"
 width="320.000000pt" height="128.000000pt" viewBox="0 0 320.000000 128.000000"
 preserveAspectRatio="xMidYMid meet">

<g transform="translate(0.000000,128.000000) scale(0.100000,-0.100000)"
fill="#000000" stroke="none">
<path d="M0 640 l0 -640 1600 0 1600 0 0 640 0 640 -1600 0 -1600 0 0 -640z
m2165 335 c569 -59 925 -188 925 -335 0 -148 -352 -275 -935 -337 -205 -22
-863 -25 -1060 -5 -516 52 -840 141 -948 261 -165 183 243 363 953 421 74 6
155 12 180 14 115 10 745 -4 885 -19z"/>
<path d="M1330 970 c-220 -10 -372 -26 -564 -56 -346 -56 -578 -145 -623 -240
-15 -31 -15 -37 0 -69 60 -126 428 -233 967 -281 249 -22 730 -22 980 0 532
47 915 159 967 284 13 32 13 39 0 68 -90 189 -932 332 -1727 294z m216 -45 c4
-8 2 -21 -4 -28 -5 -6 -12 -100 -15 -208 -5 -159 -3 -201 9 -224 8 -15 14 -36
14 -47 0 -43 -100 6 -121 59 -5 13 -4 106 2 215 6 131 6 195 -1 202 -23 23 -9
35 43 39 28 2 56 4 60 5 4 1 10 -5 13 -13z m122 0 c3 -2 -3 -20 -12 -40 -14
-29 -17 -64 -15 -213 2 -179 -3 -212 -36 -245 -40 -40 -49 -1 -10 45 25 29 25
32 25 206 0 139 -3 183 -15 206 -22 42 -12 60 27 52 17 -3 34 -8 36 -11z
m-333 -27 c-18 -139 -35 -432 -26 -441 27 -27 11 -37 -59 -37 -55 0 -72 4 -77
15 -3 9 1 21 9 28 11 9 21 67 37 212 30 276 24 255 76 255 44 0 44 0 40 -32z
m65 -35 c0 -119 -23 -155 -34 -55 -3 31 -9 72 -12 90 -6 29 -4 32 20 32 25 0
26 -1 26 -67z m414 42 c4 -14 35 -94 71 -178 50 -119 66 -169 73 -229 l8 -78
-32 0 c-31 0 -33 3 -74 95 -22 52 -64 155 -92 228 -27 72 -57 140 -65 149 -23
26 -7 38 52 38 48 0 53 -2 59 -25z m124 10 c3 -2 -1 -18 -8 -35 -12 -29 -10
-95 6 -200 4 -30 3 -32 -7 -16 -6 10 -18 59 -25 109 -8 53 -20 97 -30 108 -26
28 -11 53 28 45 17 -3 34 -8 36 -11z m-708 -14 c0 -11 -4 -22 -9 -25 -4 -3
-16 -33 -25 -66 -9 -33 -21 -60 -27 -60 -11 0 -11 3 2 95 11 69 13 75 35 75
17 0 24 -6 24 -19z m816 13 c19 -5 25 -28 63 -237 22 -128 41 -235 41 -239 0
-12 -118 -9 -125 2 -4 6 -2 17 5 25 14 17 -36 392 -57 416 -7 8 -13 21 -13 27
0 13 50 16 86 6z m-951 -223 c-5 -157 -4 -220 4 -225 6 -4 11 -14 11 -22 0
-11 -16 -14 -69 -14 -75 0 -93 11 -67 39 9 10 16 34 16 54 0 34 -2 37 -30 37
-22 0 -28 4 -24 15 4 8 17 15 29 15 26 0 27 7 40 190 9 127 10 130 57 130 l40
0 -7 -219z m1050 188 c68 -60 134 -244 120 -336 -5 -34 -16 -56 -40 -80 -47
-47 -58 -43 -50 16 7 55 -47 354 -69 381 -44 53 -16 67 39 19z m-1274 -31 c15
-27 6 -146 -15 -213 -18 -60 -67 -137 -100 -159 -38 -25 -76 -31 -76 -13 0 9
7 20 16 25 18 10 114 310 114 358 0 17 3 34 6 37 10 10 42 -11 55 -35z m1443
33 c14 -5 35 -58 82 -210 35 -111 62 -207 59 -212 -8 -13 -112 -11 -120 1 -4
6 -2 16 3 23 12 14 -80 369 -97 375 -6 2 -11 10 -11 18 0 15 50 18 84 5z
m-1520 -13 c-4 -7 -13 -20 -20 -28 -17 -20 -115 -310 -113 -335 4 -54 1 -57
-31 -40 -41 21 -57 77 -41 142 20 78 79 180 134 228 46 42 87 61 71 33z m1628
-7 c8 -8 49 -111 44 -111 -9 0 -116 112 -116 120 0 10 60 2 72 -9z m-1797 -76
c-30 -71 -51 -86 -42 -31 3 22 0 41 -8 53 -21 27 -18 33 19 33 19 0 38 5 41
11 4 6 9 8 13 5 3 -3 -7 -35 -23 -71z m1920 60 c20 -4 36 -27 80 -115 30 -60
55 -117 55 -126 0 -17 8 -28 59 -80 13 -13 22 -26 19 -29 -7 -7 -123 -22 -136
-17 -7 2 -10 13 -7 25 7 25 -107 305 -131 323 -23 18 -17 35 11 29 14 -3 36
-7 50 -10z m-2017 -43 c-31 -33 -151 -247 -154 -276 -1 -12 -3 -24 -3 -28 -2
-14 -28 -8 -43 10 -9 9 -19 27 -23 40 -11 36 37 126 103 191 77 78 189 136
120 63z m2152 -2 c55 -39 88 -101 65 -124 -13 -13 -13 -15 5 -21 11 -3 20 -11
20 -16 0 -6 -4 -7 -10 -4 -13 8 -13 -25 0 -45 8 -12 10 -9 10 12 0 15 4 29 9
33 24 14 42 -82 22 -113 -6 -10 -15 -6 -35 18 -14 17 -26 37 -27 43 -1 7 -2
21 -3 32 -1 14 -9 21 -28 23 -27 3 -32 11 -29 39 3 19 -44 106 -68 127 -12 11
-21 23 -21 27 0 12 57 -7 90 -31z m-1740 -173 c-38 -99 -48 -133 -40 -147 17
-32 11 -40 -29 -40 -52 0 -59 14 -24 53 15 18 53 95 83 172 38 96 56 132 58
115 1 -14 -20 -83 -48 -153z m819 -14 c6 -85 13 -130 25 -147 23 -36 20 -44
-20 -52 -50 -9 -64 7 -40 47 16 28 18 47 12 178 -7 181 11 160 23 -26z m704
55 c14 -43 23 -78 19 -78 -4 0 -22 18 -39 39 -30 36 -32 44 -26 86 3 25 9 42
13 38 4 -4 19 -43 33 -85z m-1883 -13 c0 -8 -4 -15 -9 -15 -4 0 -20 -27 -34
-59 -27 -63 -48 -80 -109 -91 -28 -5 -38 -4 -38 5 0 7 7 15 15 18 20 8 68 106
60 125 -8 22 12 32 68 32 35 0 47 -4 47 -15z m2150 -35 c0 -5 -2 -10 -4 -10
-3 0 -8 5 -11 10 -3 6 -1 10 4 10 6 0 11 -4 11 -10z m-174 -93 l22 -56 -45 -7
c-54 -8 -74 10 -42 39 12 11 19 31 19 53 0 51 20 39 46 -29z m289 43 c4 -6 14
-9 23 -8 13 2 17 -5 17 -27 0 -27 -4 -30 -32 -33 -32 -3 -33 -2 -33 37 0 39
11 53 25 31z"/>
<path d="M2619 609 c-16 -30 3 -45 27 -22 11 10 15 15 10 11 -6 -5 -16 -8 -23
-8 -11 0 -11 5 -3 20 6 11 8 20 6 20 -3 0 -10 -9 -17 -21z"/>
</g>
</svg>
